<svg width="1454.2" height="818.4000000000001" xmlns="http://www.w3.org/2000/svg" xmlns:xlink="http://www.w3.org/1999/xlink"><line x1="583.375" y1="7.5" x2="15.0" y2="32.0" style="stroke:black; stroke-width:1px;" />
<line x1="583.375" y1="7.5" x2="59.0" y2="32.0" style="stroke:black; stroke-width:1px;" />
<line x1="583.375" y1="7.5" x2="92.0" y2="32.0" style="stroke:black; stroke-width:1px;" />
<line x1="583.375" y1="7.5" x2="131.5" y2="32.0" style="stroke:black; stroke-width:1px;" />
<line x1="131.5" y1="39.5" x2="131.5" y2="64.0" style="stroke:black; stroke-width:1px;" />
<line x1="131.5" y1="71.5" x2="60.5" y2="96.0" style="stroke:black; stroke-width:1px;" />
<line x1="131.5" y1="71.5" x2="89.5" y2="96.0" style="stroke:black; stroke-width:1px;" />
<line x1="131.5" y1="71.5" x2="106.5" y2="96.0" style="stroke:black; stroke-width:1px;" />
<line x1="131.5" y1="71.5" x2="154.5" y2="96.0" style="stroke:black; stroke-width:1px;" />
<line x1="154.5" y1="103.5" x2="129.75" y2="128.0" style="stroke:black; stroke-width:1px;" />
<line x1="129.75" y1="135.5" x2="129.75" y2="160.0" style="stroke:black; stroke-width:1px;" />
<line x1="154.5" y1="103.5" x2="163.75" y2="128.0" style="stroke:black; stroke-width:1px;" />
<line x1="154.5" y1="103.5" x2="179.25" y2="128.0" style="stroke:black; stroke-width:1px;" />
<line x1="131.5" y1="71.5" x2="202.5" y2="96.0" style="stroke:black; stroke-width:1px;" />
<line x1="583.375" y1="7.5" x2="236.25" y2="32.0" style="stroke:black; stroke-width:1px;" />
<line x1="583.375" y1="7.5" x2="341.0" y2="32.0" style="stroke:black; stroke-width:1px;" />
<line x1="341.0" y1="39.5" x2="341.0" y2="64.0" style="stroke:black; stroke-width:1px;" />
<line x1="341.0" y1="71.5" x2="229.5" y2="96.0" style="stroke:black; stroke-width:1px;" />
<line x1="341.0" y1="71.5" x2="258.0" y2="96.0" style="stroke:black; stroke-width:1px;" />
<line x1="341.0" y1="71.5" x2="274.5" y2="96.0" style="stroke:black; stroke-width:1px;" />
<line x1="341.0" y1="71.5" x2="322.5" y2="96.0" style="stroke:black; stroke-width:1px;" />
<line x1="322.5" y1="103.5" x2="297.75" y2="128.0" style="stroke:black; stroke-width:1px;" />
<line x1="297.75" y1="135.5" x2="297.75" y2="160.0" style="stroke:black; stroke-width:1px;" />
<line x1="322.5" y1="103.5" x2="331.75" y2="128.0" style="stroke:black; stroke-width:1px;" />
<line x1="322.5" y1="103.5" x2="347.25" y2="128.0" style="stroke:black; stroke-width:1px;" />
<line x1="341.0" y1="71.5" x2="404.5" y2="96.0" style="stroke:black; stroke-width:1px;" />
<line x1="404.5" y1="103.5" x2="379.75" y2="128.0" style="stroke:black; stroke-width:1px;" />
<line x1="379.75" y1="135.5" x2="365.25" y2="160.0" style="stroke:black; stroke-width:1px;" />
<line x1="379.75" y1="135.5" x2="394.25" y2="160.0" style="stroke:black; stroke-width:1px;" />
<line x1="404.5" y1="103.5" x2="413.75" y2="128.0" style="stroke:black; stroke-width:1px;" />
<line x1="404.5" y1="103.5" x2="429.25" y2="128.0" style="stroke:black; stroke-width:1px;" />
<line x1="341.0" y1="71.5" x2="452.5" y2="96.0" style="stroke:black; stroke-width:1px;" />
<line x1="583.375" y1="7.5" x2="486.96875" y2="32.0" style="stroke:black; stroke-width:1px;" />
<line x1="583.375" y1="7.5" x2="632.9375" y2="32.0" style="stroke:black; stroke-width:1px;" />
<line x1="632.9375" y1="39.5" x2="632.9375" y2="64.0" style="stroke:black; stroke-width:1px;" />
<line x1="632.9375" y1="71.5" x2="495.0" y2="96.0" style="stroke:black; stroke-width:1px;" />
<line x1="495.0" y1="103.5" x2="495.0" y2="128.0" style="stroke:black; stroke-width:1px;" />
<line x1="632.9375" y1="71.5" x2="555.0" y2="96.0" style="stroke:black; stroke-width:1px;" />
<line x1="632.9375" y1="71.5" x2="587.5" y2="96.0" style="stroke:black; stroke-width:1px;" />
<line x1="632.9375" y1="71.5" x2="625.0" y2="96.0" style="stroke:black; stroke-width:1px;" />
<line x1="625.0" y1="103.5" x2="599.75" y2="128.0" style="stroke:black; stroke-width:1px;" />
<line x1="599.75" y1="135.5" x2="599.75" y2="160.0" style="stroke:black; stroke-width:1px;" />
<line x1="625.0" y1="103.5" x2="650.25" y2="128.0" style="stroke:black; stroke-width:1px;" />
<line x1="632.9375" y1="71.5" x2="703.9375" y2="96.0" style="stroke:black; stroke-width:1px;" />
<line x1="632.9375" y1="71.5" x2="770.875" y2="96.0" style="stroke:black; stroke-width:1px;" />
<line x1="770.875" y1="103.5" x2="734.375" y2="128.0" style="stroke:black; stroke-width:1px;" />
<line x1="770.875" y1="103.5" x2="770.875" y2="128.0" style="stroke:black; stroke-width:1px;" />
<line x1="770.875" y1="135.5" x2="619.25" y2="160.0" style="stroke:black; stroke-width:1px;" />
<line x1="770.875" y1="135.5" x2="635.25" y2="160.0" style="stroke:black; stroke-width:1px;" />
<line x1="770.875" y1="135.5" x2="675.25" y2="160.0" style="stroke:black; stroke-width:1px;" />
<line x1="675.25" y1="167.5" x2="631.0" y2="192.0" style="stroke:black; stroke-width:1px;" />
<line x1="631.0" y1="199.5" x2="631.0" y2="224.0" style="stroke:black; stroke-width:1px;" />
<line x1="631.0" y1="231.5" x2="631.0" y2="256.0" style="stroke:black; stroke-width:1px;" />
<line x1="675.25" y1="167.5" x2="675.5" y2="192.0" style="stroke:black; stroke-width:1px;" />
<line x1="675.5" y1="199.5" x2="675.5" y2="224.0" style="stroke:black; stroke-width:1px;" />
<line x1="675.5" y1="231.5" x2="675.5" y2="256.0" style="stroke:black; stroke-width:1px;" />
<line x1="675.25" y1="167.5" x2="719.5" y2="192.0" style="stroke:black; stroke-width:1px;" />
<line x1="719.5" y1="199.5" x2="719.5" y2="224.0" style="stroke:black; stroke-width:1px;" />
<line x1="719.5" y1="231.5" x2="719.5" y2="256.0" style="stroke:black; stroke-width:1px;" />
<line x1="719.5" y1="263.5" x2="719.5" y2="288.0" style="stroke:black; stroke-width:1px;" />
<line x1="770.875" y1="135.5" x2="746.625" y2="160.0" style="stroke:black; stroke-width:1px;" />
<line x1="770.875" y1="135.5" x2="803.5" y2="160.0" style="stroke:black; stroke-width:1px;" />
<line x1="803.5" y1="167.5" x2="767.0" y2="192.0" style="stroke:black; stroke-width:1px;" />
<line x1="803.5" y1="167.5" x2="803.5" y2="192.0" style="stroke:black; stroke-width:1px;" />
<line x1="803.5" y1="199.5" x2="757.5" y2="224.0" style="stroke:black; stroke-width:1px;" />
<line x1="803.5" y1="199.5" x2="810.0" y2="224.0" style="stroke:black; stroke-width:1px;" />
<line x1="810.0" y1="231.5" x2="810.0" y2="256.0" style="stroke:black; stroke-width:1px;" />
<line x1="810.0" y1="263.5" x2="810.0" y2="288.0" style="stroke:black; stroke-width:1px;" />
<line x1="810.0" y1="295.5" x2="810.0" y2="320.0" style="stroke:black; stroke-width:1px;" />
<line x1="803.5" y1="199.5" x2="849.5" y2="224.0" style="stroke:black; stroke-width:1px;" />
<line x1="803.5" y1="167.5" x2="840.0" y2="192.0" style="stroke:black; stroke-width:1px;" />
<line x1="770.875" y1="135.5" x2="863.0" y2="160.0" style="stroke:black; stroke-width:1px;" />
<line x1="770.875" y1="135.5" x2="922.5" y2="160.0" style="stroke:black; stroke-width:1px;" />
<line x1="922.5" y1="167.5" x2="886.0" y2="192.0" style="stroke:black; stroke-width:1px;" />
<line x1="922.5" y1="167.5" x2="922.5" y2="192.0" style="stroke:black; stroke-width:1px;" />
<line x1="922.5" y1="199.5" x2="876.5" y2="224.0" style="stroke:black; stroke-width:1px;" />
<line x1="922.5" y1="199.5" x2="929.0" y2="224.0" style="stroke:black; stroke-width:1px;" />
<line x1="929.0" y1="231.5" x2="869.625" y2="256.0" style="stroke:black; stroke-width:1px;" />
<line x1="869.625" y1="263.5" x2="869.625" y2="288.0" style="stroke:black; stroke-width:1px;" />
<line x1="869.625" y1="295.5" x2="869.625" y2="320.0" style="stroke:black; stroke-width:1px;" />
<line x1="929.0" y1="231.5" x2="918.625" y2="256.0" style="stroke:black; stroke-width:1px;" />
<line x1="918.625" y1="263.5" x2="918.625" y2="288.0" style="stroke:black; stroke-width:1px;" />
<line x1="918.625" y1="295.5" x2="918.625" y2="320.0" style="stroke:black; stroke-width:1px;" />
<line x1="929.0" y1="231.5" x2="988.375" y2="256.0" style="stroke:black; stroke-width:1px;" />
<line x1="988.375" y1="263.5" x2="988.375" y2="288.0" style="stroke:black; stroke-width:1px;" />
<line x1="988.375" y1="295.5" x2="951.125" y2="320.0" style="stroke:black; stroke-width:1px;" />
<line x1="988.375" y1="295.5" x2="983.625" y2="320.0" style="stroke:black; stroke-width:1px;" />
<line x1="988.375" y1="295.5" x2="1004.625" y2="320.0" style="stroke:black; stroke-width:1px;" />
<line x1="1004.625" y1="327.5" x2="1004.625" y2="352.0" style="stroke:black; stroke-width:1px;" />
<line x1="1004.625" y1="359.5" x2="958.125" y2="384.0" style="stroke:black; stroke-width:1px;" />
<line x1="958.125" y1="391.5" x2="958.125" y2="416.0" style="stroke:black; stroke-width:1px;" />
<line x1="958.125" y1="423.5" x2="958.125" y2="448.0" style="stroke:black; stroke-width:1px;" />
<line x1="1004.625" y1="359.5" x2="1007.125" y2="384.0" style="stroke:black; stroke-width:1px;" />
<line x1="1007.125" y1="391.5" x2="1007.125" y2="416.0" style="stroke:black; stroke-width:1px;" />
<line x1="1007.125" y1="423.5" x2="1007.125" y2="448.0" style="stroke:black; stroke-width:1px;" />
<line x1="1004.625" y1="359.5" x2="1051.125" y2="384.0" style="stroke:black; stroke-width:1px;" />
<line x1="1051.125" y1="391.5" x2="1051.125" y2="416.0" style="stroke:black; stroke-width:1px;" />
<line x1="1051.125" y1="423.5" x2="1051.125" y2="448.0" style="stroke:black; stroke-width:1px;" />
<line x1="1051.125" y1="455.5" x2="1051.125" y2="480.0" style="stroke:black; stroke-width:1px;" />
<line x1="988.375" y1="295.5" x2="1025.625" y2="320.0" style="stroke:black; stroke-width:1px;" />
<line x1="922.5" y1="199.5" x2="968.5" y2="224.0" style="stroke:black; stroke-width:1px;" />
<line x1="922.5" y1="167.5" x2="959.0" y2="192.0" style="stroke:black; stroke-width:1px;" />
<line x1="770.875" y1="103.5" x2="807.375" y2="128.0" style="stroke:black; stroke-width:1px;" />
<line x1="583.375" y1="7.5" x2="1083.25" y2="32.0" style="stroke:black; stroke-width:1px;" />
<line x1="1083.25" y1="39.5" x2="1083.25" y2="64.0" style="stroke:black; stroke-width:1px;" />
<line x1="1083.25" y1="71.5" x2="954.0" y2="96.0" style="stroke:black; stroke-width:1px;" />
<line x1="954.0" y1="103.5" x2="954.0" y2="128.0" style="stroke:black; stroke-width:1px;" />
<line x1="1083.25" y1="71.5" x2="1027.8" y2="96.0" style="stroke:black; stroke-width:1px;" />
<line x1="1083.25" y1="71.5" x2="1074.1" y2="96.0" style="stroke:black; stroke-width:1px;" />
<line x1="1083.25" y1="71.5" x2="1119.4" y2="96.0" style="stroke:black; stroke-width:1px;" />
<line x1="1083.25" y1="71.5" x2="1164.7" y2="96.0" style="stroke:black; stroke-width:1px;" />
<line x1="1083.25" y1="71.5" x2="1212.5" y2="96.0" style="stroke:black; stroke-width:1px;" />
<line x1="1212.5" y1="103.5" x2="977.0" y2="128.0" style="stroke:black; stroke-width:1px;" />
<line x1="1212.5" y1="103.5" x2="1025.0" y2="128.0" style="stroke:black; stroke-width:1px;" />
<line x1="1025.0" y1="135.5" x2="1000.25" y2="160.0" style="stroke:black; stroke-width:1px;" />
<line x1="1000.25" y1="167.5" x2="986.0" y2="192.0" style="stroke:black; stroke-width:1px;" />
<line x1="1000.25" y1="167.5" x2="1014.5" y2="192.0" style="stroke:black; stroke-width:1px;" />
<line x1="1025.0" y1="135.5" x2="1034.25" y2="160.0" style="stroke:black; stroke-width:1px;" />
<line x1="1025.0" y1="135.5" x2="1049.75" y2="160.0" style="stroke:black; stroke-width:1px;" />
<line x1="1212.5" y1="103.5" x2="1117.5" y2="128.0" style="stroke:black; stroke-width:1px;" />
<line x1="1117.5" y1="135.5" x2="1080.75" y2="160.0" style="stroke:black; stroke-width:1px;" />
<line x1="1080.75" y1="167.5" x2="1057.5" y2="192.0" style="stroke:black; stroke-width:1px;" />
<line x1="1080.75" y1="167.5" x2="1073.0" y2="192.0" style="stroke:black; stroke-width:1px;" />
<line x1="1080.75" y1="167.5" x2="1104.0" y2="192.0" style="stroke:black; stroke-width:1px;" />
<line x1="1104.0" y1="199.5" x2="1104.0" y2="224.0" style="stroke:black; stroke-width:1px;" />
<line x1="1117.5" y1="135.5" x2="1113.25" y2="160.0" style="stroke:black; stroke-width:1px;" />
<line x1="1117.5" y1="135.5" x2="1154.25" y2="160.0" style="stroke:black; stroke-width:1px;" />
<line x1="1154.25" y1="167.5" x2="1154.25" y2="192.0" style="stroke:black; stroke-width:1px;" />
<line x1="1154.25" y1="199.5" x2="1154.25" y2="224.0" style="stroke:black; stroke-width:1px;" />
<line x1="1154.25" y1="231.5" x2="1154.25" y2="256.0" style="stroke:black; stroke-width:1px;" />
<line x1="1212.5" y1="103.5" x2="1193.75" y2="128.0" style="stroke:black; stroke-width:1px;" />
<line x1="1193.75" y1="135.5" x2="1193.75" y2="160.0" style="stroke:black; stroke-width:1px;" />
<line x1="1212.5" y1="103.5" x2="1272.5" y2="128.0" style="stroke:black; stroke-width:1px;" />
<line x1="1272.5" y1="135.5" x2="1224.75" y2="160.0" style="stroke:black; stroke-width:1px;" />
<line x1="1224.75" y1="167.5" x2="1201.5" y2="192.0" style="stroke:black; stroke-width:1px;" />
<line x1="1224.75" y1="167.5" x2="1217.0" y2="192.0" style="stroke:black; stroke-width:1px;" />
<line x1="1224.75" y1="167.5" x2="1248.0" y2="192.0" style="stroke:black; stroke-width:1px;" />
<line x1="1248.0" y1="199.5" x2="1224.75" y2="224.0" style="stroke:black; stroke-width:1px;" />
<line x1="1248.0" y1="199.5" x2="1240.25" y2="224.0" style="stroke:black; stroke-width:1px;" />
<line x1="1248.0" y1="199.5" x2="1271.25" y2="224.0" style="stroke:black; stroke-width:1px;" />
<line x1="1271.25" y1="231.5" x2="1271.25" y2="256.0" style="stroke:black; stroke-width:1px;" />
<line x1="1272.5" y1="135.5" x2="1268.25" y2="160.0" style="stroke:black; stroke-width:1px;" />
<line x1="1272.5" y1="135.5" x2="1320.25" y2="160.0" style="stroke:black; stroke-width:1px;" />
<line x1="1320.25" y1="167.5" x2="1320.25" y2="192.0" style="stroke:black; stroke-width:1px;" />
<line x1="1320.25" y1="199.5" x2="1320.25" y2="224.0" style="stroke:black; stroke-width:1px;" />
<line x1="1212.5" y1="103.5" x2="1411.5" y2="128.0" style="stroke:black; stroke-width:1px;" />
<line x1="1411.5" y1="135.5" x2="1391.75" y2="160.0" style="stroke:black; stroke-width:1px;" />
<line x1="1391.75" y1="167.5" x2="1351.75" y2="192.0" style="stroke:black; stroke-width:1px;" />
<line x1="1391.75" y1="167.5" x2="1391.75" y2="192.0" style="stroke:black; stroke-width:1px;" />
<line x1="1391.75" y1="199.5" x2="1391.75" y2="224.0" style="stroke:black; stroke-width:1px;" />
<line x1="1391.75" y1="231.5" x2="1368.5" y2="256.0" style="stroke:black; stroke-width:1px;" />
<line x1="1391.75" y1="231.5" x2="1384.0" y2="256.0" style="stroke:black; stroke-width:1px;" />
<line x1="1391.75" y1="231.5" x2="1415.0" y2="256.0" style="stroke:black; stroke-width:1px;" />
<line x1="1415.0" y1="263.5" x2="1415.0" y2="288.0" style="stroke:black; stroke-width:1px;" />
<line x1="1391.75" y1="167.5" x2="1431.75" y2="192.0" style="stroke:black; stroke-width:1px;" />
<line x1="1411.5" y1="135.5" x2="1431.25" y2="160.0" style="stroke:black; stroke-width:1px;" />
<line x1="1212.5" y1="103.5" x2="1448.0" y2="128.0" style="stroke:black; stroke-width:1px;" />
<line x1="583.375" y1="7.5" x2="1122.75" y2="32.0" style="stroke:black; stroke-width:1px;" />
<line x1="583.375" y1="7.5" x2="1151.75" y2="32.0" style="stroke:black; stroke-width:1px;" />
<rect x="1052.5" y="192.0" width="10.0" height="15.0" style="fill:orange; stroke:rgb(0,0,0);" rx="1"/>
<text x="1054" y="201" style="font-family:sans-serif;font-size:10px;">
y
</text>
<rect x="1444.0" y="128.0" width="8.0" height="15.0" style="fill:orange; stroke:rgb(0,0,0);" rx="1"/>
<text x="1446" y="137" style="font-family:sans-serif;font-size:10px;">
}
</text>
<rect x="84.0" y="96.0" width="11.0" height="15.0" style="fill:orange; stroke:rgb(0,0,0);" rx="1"/>
<text x="86" y="105" style="font-family:sans-serif;font-size:10px;">
A
</text>
<rect x="929.125" y="384.0" width="58.0" height="15.0" style="fill:orange; stroke:rgb(0,0,0);" rx="1"/>
<text x="931" y="393" style="font-family:sans-serif;font-size:10px;">
expression
</text>
<rect x="631.25" y="160.0" width="8.0" height="15.0" style="fill:orange; stroke:rgb(0,0,0);" rx="1"/>
<text x="633" y="169" style="font-family:sans-serif;font-size:10px;">
(
</text>
<rect x="1370.25" y="224.0" width="43.0" height="15.0" style="fill:orange; stroke:rgb(0,0,0);" rx="1"/>
<text x="1372" y="233" style="font-family:sans-serif;font-size:10px;">
location
</text>
<rect x="1082.5" y="192.0" width="43.0" height="15.0" style="fill:orange; stroke:rgb(0,0,0);" rx="1"/>
<text x="1084" y="201" style="font-family:sans-serif;font-size:10px;">
location
</text>
<rect x="533.0" y="96.0" width="44.0" height="15.0" style="fill:orange; stroke:rgb(0,0,0);" rx="1"/>
<text x="535" y="105" style="font-family:sans-serif;font-size:10px;">
factorial
</text>
<rect x="326.75" y="128.0" width="10.0" height="15.0" style="fill:orange; stroke:rgb(0,0,0);" rx="1"/>
<text x="328" y="137" style="font-family:sans-serif;font-size:10px;">
b
</text>
<rect x="1125.25" y="160.0" width="58.0" height="15.0" style="fill:orange; stroke:rgb(0,0,0);" rx="1"/>
<text x="1127" y="169" style="font-family:sans-serif;font-size:10px;">
expression
</text>
<rect x="848.125" y="288.0" width="43.0" height="15.0" style="fill:orange; stroke:rgb(0,0,0);" rx="1"/>
<text x="850" y="297" style="font-family:sans-serif;font-size:10px;">
location
</text>
<rect x="213.5" y="96.0" width="32.0" height="15.0" style="fill:orange; stroke:rgb(0,0,0);" rx="1"/>
<text x="215" y="105" style="font-family:sans-serif;font-size:10px;">
struct
</text>
<rect x="1003.125" y="448.0" width="8.0" height="15.0" style="fill:orange; stroke:rgb(0,0,0);" rx="1"/>
<text x="1005" y="457" style="font-family:sans-serif;font-size:10px;">
-
</text>
<rect x="1197.5" y="96.0" width="30.0" height="15.0" style="fill:orange; stroke:rgb(0,0,0);" rx="1"/>
<text x="1199" y="105" style="font-family:sans-serif;font-size:10px;">
block
</text>
<rect x="955.0" y="192.0" width="8.0" height="15.0" style="fill:orange; stroke:rgb(0,0,0);" rx="1"/>
<text x="957" y="201" style="font-family:sans-serif;font-size:10px;">
}
</text>
<rect x="1070.1" y="96.0" width="8.0" height="15.0" style="fill:orange; stroke:rgb(0,0,0);" rx="1"/>
<text x="1072" y="105" style="font-family:sans-serif;font-size:10px;">
(
</text>
<rect x="349.25" y="160.0" width="32.0" height="15.0" style="fill:orange; stroke:rgb(0,0,0);" rx="1"/>
<text x="351" y="169" style="font-family:sans-serif;font-size:10px;">
struct
</text>
<rect x="785.0" y="288.0" width="50.0" height="15.0" style="fill:orange; stroke:rgb(0,0,0);" rx="1"/>
<text x="787" y="297" style="font-family:sans-serif;font-size:10px;">
int_literal
</text>
<rect x="864.625" y="320.0" width="10.0" height="15.0" style="fill:orange; stroke:rgb(0,0,0);" rx="1"/>
<text x="866" y="329" style="font-family:sans-serif;font-size:10px;">
n
</text>
<rect x="1108.25" y="160.0" width="10.0" height="15.0" style="fill:orange; stroke:rgb(0,0,0);" rx="1"/>
<text x="1110" y="169" style="font-family:sans-serif;font-size:10px;">
=
</text>
<rect x="487.0" y="128.0" width="16.0" height="15.0" style="fill:orange; stroke:rgb(0,0,0);" rx="1"/>
<text x="489" y="137" style="font-family:sans-serif;font-size:10px;">
int
</text>
<rect x="86.5" y="64.0" width="90.0" height="15.0" style="fill:orange; stroke:rgb(0,0,0);" rx="1"/>
<text x="88" y="73" style="font-family:sans-serif;font-size:10px;">
structDeclaration
</text>
<rect x="343.75" y="128.0" width="7.0" height="15.0" style="fill:orange; stroke:rgb(0,0,0);" rx="1"/>
<text x="345" y="137" style="font-family:sans-serif;font-size:10px;">
;
</text>
<rect x="645.25" y="128.0" width="10.0" height="15.0" style="fill:orange; stroke:rgb(0,0,0);" rx="1"/>
<text x="647" y="137" style="font-family:sans-serif;font-size:10px;">
n
</text>
<rect x="646.25" y="160.0" width="58.0" height="15.0" style="fill:orange; stroke:rgb(0,0,0);" rx="1"/>
<text x="648" y="169" style="font-family:sans-serif;font-size:10px;">
expression
</text>
<rect x="846.0" y="224.0" width="7.0" height="15.0" style="fill:orange; stroke:rgb(0,0,0);" rx="1"/>
<text x="848" y="233" style="font-family:sans-serif;font-size:10px;">
;
</text>
<rect x="1298.75" y="192.0" width="43.0" height="15.0" style="fill:orange; stroke:rgb(0,0,0);" rx="1"/>
<text x="1300" y="201" style="font-family:sans-serif;font-size:10px;">
location
</text>
<rect x="1046.25" y="160.0" width="7.0" height="15.0" style="fill:orange; stroke:rgb(0,0,0);" rx="1"/>
<text x="1048" y="169" style="font-family:sans-serif;font-size:10px;">
;
</text>
<rect x="597.0" y="96.0" width="56.0" height="15.0" style="fill:orange; stroke:rgb(0,0,0);" rx="1"/>
<text x="599" y="105" style="font-family:sans-serif;font-size:10px;">
parameter
</text>
<rect x="591.75" y="160.0" width="16.0" height="15.0" style="fill:orange; stroke:rgb(0,0,0);" rx="1"/>
<text x="593" y="169" style="font-family:sans-serif;font-size:10px;">
int
</text>
<rect x="1053.25" y="32.0" width="60.0" height="15.0" style="fill:orange; stroke:rgb(0,0,0);" rx="1"/>
<text x="1055" y="41" style="font-family:sans-serif;font-size:10px;">
declaration
</text>
<rect x="365.5" y="96.0" width="78.0" height="15.0" style="fill:orange; stroke:rgb(0,0,0);" rx="1"/>
<text x="367" y="105" style="font-family:sans-serif;font-size:10px;">
varDeclaration
</text>
<rect x="483.46875" y="32.0" width="7.0" height="15.0" style="fill:orange; stroke:rgb(0,0,0);" rx="1"/>
<text x="485" y="41" style="font-family:sans-serif;font-size:10px;">
;
</text>
<rect x="102.5" y="96.0" width="8.0" height="15.0" style="fill:orange; stroke:rgb(0,0,0);" rx="1"/>
<text x="104" y="105" style="font-family:sans-serif;font-size:10px;">
{
</text>
<rect x="743.875" y="128.0" width="54.0" height="15.0" style="fill:orange; stroke:rgb(0,0,0);" rx="1"/>
<text x="745" y="137" style="font-family:sans-serif;font-size:10px;">
statement
</text>
<rect x="1236.75" y="224.0" width="7.0" height="15.0" style="fill:orange; stroke:rgb(0,0,0);" rx="1"/>
<text x="1238" y="233" style="font-family:sans-serif;font-size:10px;">
.
</text>
<rect x="1298.25" y="224.0" width="44.0" height="15.0" style="fill:orange; stroke:rgb(0,0,0);" rx="1"/>
<text x="1300" y="233" style="font-family:sans-serif;font-size:10px;">
factorial
</text>
<rect x="560.375" y="0.0" width="46.0" height="15.0" style="fill:orange; stroke:rgb(0,0,0);" rx="1"/>
<text x="562" y="9" style="font-family:sans-serif;font-size:10px;">
program
</text>
<rect x="408.75" y="128.0" width="10.0" height="15.0" style="fill:orange; stroke:rgb(0,0,0);" rx="1"/>
<text x="410" y="137" style="font-family:sans-serif;font-size:10px;">
c
</text>
<rect x="602.9375" y="32.0" width="60.0" height="15.0" style="fill:orange; stroke:rgb(0,0,0);" rx="1"/>
<text x="604" y="41" style="font-family:sans-serif;font-size:10px;">
declaration
</text>
<rect x="198.5" y="96.0" width="8.0" height="15.0" style="fill:orange; stroke:rgb(0,0,0);" rx="1"/>
<text x="200" y="105" style="font-family:sans-serif;font-size:10px;">
}
</text>
<rect x="957.875" y="288.0" width="61.0" height="15.0" style="fill:orange; stroke:rgb(0,0,0);" rx="1"/>
<text x="959" y="297" style="font-family:sans-serif;font-size:10px;">
methodCall
</text>
<rect x="977.25" y="160.0" width="46.0" height="15.0" style="fill:orange; stroke:rgb(0,0,0);" rx="1"/>
<text x="979" y="169" style="font-family:sans-serif;font-size:10px;">
varType
</text>
<rect x="1266.25" y="256.0" width="10.0" height="15.0" style="fill:orange; stroke:rgb(0,0,0);" rx="1"/>
<text x="1268" y="265" style="font-family:sans-serif;font-size:10px;">
a
</text>
<rect x="106.75" y="128.0" width="46.0" height="15.0" style="fill:orange; stroke:rgb(0,0,0);" rx="1"/>
<text x="108" y="137" style="font-family:sans-serif;font-size:10px;">
varType
</text>
<rect x="1099.0" y="224.0" width="10.0" height="15.0" style="fill:orange; stroke:rgb(0,0,0);" rx="1"/>
<text x="1101" y="233" style="font-family:sans-serif;font-size:10px;">
b
</text>
<rect x="626.0" y="256.0" width="10.0" height="15.0" style="fill:orange; stroke:rgb(0,0,0);" rx="1"/>
<text x="628" y="265" style="font-family:sans-serif;font-size:10px;">
n
</text>
<rect x="667.0" y="256.0" width="17.0" height="15.0" style="fill:orange; stroke:rgb(0,0,0);" rx="1"/>
<text x="669" y="265" style="font-family:sans-serif;font-size:10px;">
==
</text>
<rect x="776.5" y="192.0" width="54.0" height="15.0" style="fill:orange; stroke:rgb(0,0,0);" rx="1"/>
<text x="778" y="201" style="font-family:sans-serif;font-size:10px;">
statement
</text>
<rect x="1026.125" y="448.0" width="50.0" height="15.0" style="fill:orange; stroke:rgb(0,0,0);" rx="1"/>
<text x="1028" y="457" style="font-family:sans-serif;font-size:10px;">
int_literal
</text>
<rect x="941.5" y="128.0" width="25.0" height="15.0" style="fill:orange; stroke:rgb(0,0,0);" rx="1"/>
<text x="943" y="137" style="font-family:sans-serif;font-size:10px;">
void
</text>
<rect x="1226.5" y="192.0" width="43.0" height="15.0" style="fill:orange; stroke:rgb(0,0,0);" rx="1"/>
<text x="1228" y="201" style="font-family:sans-serif;font-size:10px;">
location
</text>
<rect x="1090.5" y="128.0" width="54.0" height="15.0" style="fill:orange; stroke:rgb(0,0,0);" rx="1"/>
<text x="1092" y="137" style="font-family:sans-serif;font-size:10px;">
statement
</text>
<rect x="1410.0" y="288.0" width="10.0" height="15.0" style="fill:orange; stroke:rgb(0,0,0);" rx="1"/>
<text x="1412" y="297" style="font-family:sans-serif;font-size:10px;">
b
</text>
<rect x="788.5" y="160.0" width="30.0" height="15.0" style="fill:orange; stroke:rgb(0,0,0);" rx="1"/>
<text x="790" y="169" style="font-family:sans-serif;font-size:10px;">
block
</text>
<rect x="1362.75" y="160.0" width="58.0" height="15.0" style="fill:orange; stroke:rgb(0,0,0);" rx="1"/>
<text x="1364" y="169" style="font-family:sans-serif;font-size:10px;">
expression
</text>
<rect x="1363.5" y="256.0" width="10.0" height="15.0" style="fill:orange; stroke:rgb(0,0,0);" rx="1"/>
<text x="1365" y="265" style="font-family:sans-serif;font-size:10px;">
y
</text>
<rect x="959.375" y="256.0" width="58.0" height="15.0" style="fill:orange; stroke:rgb(0,0,0);" rx="1"/>
<text x="961" y="265" style="font-family:sans-serif;font-size:10px;">
expression
</text>
<rect x="657.5" y="224.0" width="36.0" height="15.0" style="fill:orange; stroke:rgb(0,0,0);" rx="1"/>
<text x="659" y="233" style="font-family:sans-serif;font-size:10px;">
eq_op
</text>
<rect x="850.5" y="160.0" width="25.0" height="15.0" style="fill:orange; stroke:rgb(0,0,0);" rx="1"/>
<text x="852" y="169" style="font-family:sans-serif;font-size:10px;">
else
</text>
<rect x="914.625" y="320.0" width="8.0" height="15.0" style="fill:orange; stroke:rgb(0,0,0);" rx="1"/>
<text x="916" y="329" style="font-family:sans-serif;font-size:10px;">
*
</text>
<rect x="583.4375" y="64.0" width="99.0" height="15.0" style="fill:orange; stroke:rgb(0,0,0);" rx="1"/>
<text x="585" y="73" style="font-family:sans-serif;font-size:10px;">
methodDeclaration
</text>
<rect x="699.9375" y="96.0" width="8.0" height="15.0" style="fill:orange; stroke:rgb(0,0,0);" rx="1"/>
<text x="701" y="105" style="font-family:sans-serif;font-size:10px;">
)
</text>
<rect x="1022.125" y="384.0" width="58.0" height="15.0" style="fill:orange; stroke:rgb(0,0,0);" rx="1"/>
<text x="1024" y="393" style="font-family:sans-serif;font-size:10px;">
expression
</text>
<rect x="840.625" y="256.0" width="58.0" height="15.0" style="fill:orange; stroke:rgb(0,0,0);" rx="1"/>
<text x="842" y="265" style="font-family:sans-serif;font-size:10px;">
expression
</text>
<rect x="614.25" y="160.0" width="10.0" height="15.0" style="fill:orange; stroke:rgb(0,0,0);" rx="1"/>
<text x="616" y="169" style="font-family:sans-serif;font-size:10px;">
if
</text>
<rect x="1106.9" y="96.0" width="25.0" height="15.0" style="fill:orange; stroke:rgb(0,0,0);" rx="1"/>
<text x="1108" y="105" style="font-family:sans-serif;font-size:10px;">
void
</text>
<rect x="973.0" y="128.0" width="8.0" height="15.0" style="fill:orange; stroke:rgb(0,0,0);" rx="1"/>
<text x="975" y="137" style="font-family:sans-serif;font-size:10px;">
{
</text>
<rect x="920.5" y="96.0" width="67.0" height="15.0" style="fill:orange; stroke:rgb(0,0,0);" rx="1"/>
<text x="922" y="105" style="font-family:sans-serif;font-size:10px;">
methodType
</text>
<rect x="1013.8" y="96.0" width="28.0" height="15.0" style="fill:orange; stroke:rgb(0,0,0);" rx="1"/>
<text x="1015" y="105" style="font-family:sans-serif;font-size:10px;">
main
</text>
<rect x="35.5" y="32.0" width="47.0" height="15.0" style="fill:orange; stroke:rgb(0,0,0);" rx="1"/>
<text x="37" y="41" style="font-family:sans-serif;font-size:10px;">
Program
</text>
<rect x="296.0" y="64.0" width="90.0" height="15.0" style="fill:orange; stroke:rgb(0,0,0);" rx="1"/>
<text x="298" y="73" style="font-family:sans-serif;font-size:10px;">
structDeclaration
</text>
<rect x="425.75" y="128.0" width="7.0" height="15.0" style="fill:orange; stroke:rgb(0,0,0);" rx="1"/>
<text x="427" y="137" style="font-family:sans-serif;font-size:10px;">
;
</text>
<rect x="907.5" y="160.0" width="30.0" height="15.0" style="fill:orange; stroke:rgb(0,0,0);" rx="1"/>
<text x="909" y="169" style="font-family:sans-serif;font-size:10px;">
block
</text>
<rect x="44.5" y="96.0" width="32.0" height="15.0" style="fill:orange; stroke:rgb(0,0,0);" rx="1"/>
<text x="46" y="105" style="font-family:sans-serif;font-size:10px;">
struct
</text>
<rect x="283.5" y="96.0" width="78.0" height="15.0" style="fill:orange; stroke:rgb(0,0,0);" rx="1"/>
<text x="285" y="105" style="font-family:sans-serif;font-size:10px;">
varDeclaration
</text>
<rect x="984.125" y="416.0" width="46.0" height="15.0" style="fill:orange; stroke:rgb(0,0,0);" rx="1"/>
<text x="986" y="425" style="font-family:sans-serif;font-size:10px;">
arith_op
</text>
<rect x="583.5" y="96.0" width="8.0" height="15.0" style="fill:orange; stroke:rgb(0,0,0);" rx="1"/>
<text x="585" y="105" style="font-family:sans-serif;font-size:10px;">
(
</text>
<rect x="1046.125" y="480.0" width="10.0" height="15.0" style="fill:orange; stroke:rgb(0,0,0);" rx="1"/>
<text x="1048" y="489" style="font-family:sans-serif;font-size:10px;">
1
</text>
<rect x="970.0" y="192.0" width="32.0" height="15.0" style="fill:orange; stroke:rgb(0,0,0);" rx="1"/>
<text x="972" y="201" style="font-family:sans-serif;font-size:10px;">
struct
</text>
<rect x="121.75" y="160.0" width="16.0" height="15.0" style="fill:orange; stroke:rgb(0,0,0);" rx="1"/>
<text x="123" y="169" style="font-family:sans-serif;font-size:10px;">
int
</text>
<rect x="1190.25" y="160.0" width="7.0" height="15.0" style="fill:orange; stroke:rgb(0,0,0);" rx="1"/>
<text x="1192" y="169" style="font-family:sans-serif;font-size:10px;">
;
</text>
<rect x="0.0" y="32.0" width="30.0" height="15.0" style="fill:orange; stroke:rgb(0,0,0);" rx="1"/>
<text x="2" y="41" style="font-family:sans-serif;font-size:10px;">
class
</text>
<rect x="1029.25" y="160.0" width="10.0" height="15.0" style="fill:orange; stroke:rgb(0,0,0);" rx="1"/>
<text x="1031" y="169" style="font-family:sans-serif;font-size:10px;">
y
</text>
<rect x="836.0" y="192.0" width="8.0" height="15.0" style="fill:orange; stroke:rgb(0,0,0);" rx="1"/>
<text x="838" y="201" style="font-family:sans-serif;font-size:10px;">
}
</text>
<rect x="910.125" y="256.0" width="17.0" height="15.0" style="fill:orange; stroke:rgb(0,0,0);" rx="1"/>
<text x="912" y="265" style="font-family:sans-serif;font-size:10px;">
op
</text>
<rect x="1009.0" y="192.0" width="11.0" height="15.0" style="fill:orange; stroke:rgb(0,0,0);" rx="1"/>
<text x="1011" y="201" style="font-family:sans-serif;font-size:10px;">
B
</text>
<rect x="781.0" y="224.0" width="58.0" height="15.0" style="fill:orange; stroke:rgb(0,0,0);" rx="1"/>
<text x="783" y="233" style="font-family:sans-serif;font-size:10px;">
expression
</text>
<rect x="742.625" y="160.0" width="8.0" height="15.0" style="fill:orange; stroke:rgb(0,0,0);" rx="1"/>
<text x="744" y="169" style="font-family:sans-serif;font-size:10px;">
)
</text>
<rect x="388.75" y="160.0" width="11.0" height="15.0" style="fill:orange; stroke:rgb(0,0,0);" rx="1"/>
<text x="390" y="169" style="font-family:sans-serif;font-size:10px;">
A
</text>
<rect x="289.75" y="160.0" width="16.0" height="15.0" style="fill:orange; stroke:rgb(0,0,0);" rx="1"/>
<text x="291" y="169" style="font-family:sans-serif;font-size:10px;">
int
</text>
<rect x="609.5" y="224.0" width="43.0" height="15.0" style="fill:orange; stroke:rgb(0,0,0);" rx="1"/>
<text x="611" y="233" style="font-family:sans-serif;font-size:10px;">
location
</text>
<rect x="1035.625" y="416.0" width="31.0" height="15.0" style="fill:orange; stroke:rgb(0,0,0);" rx="1"/>
<text x="1037" y="425" style="font-family:sans-serif;font-size:10px;">
literal
</text>
<rect x="1427.75" y="160.0" width="7.0" height="15.0" style="fill:orange; stroke:rgb(0,0,0);" rx="1"/>
<text x="1429" y="169" style="font-family:sans-serif;font-size:10px;">
;
</text>
<rect x="232.75" y="32.0" width="7.0" height="15.0" style="fill:orange; stroke:rgb(0,0,0);" rx="1"/>
<text x="234" y="41" style="font-family:sans-serif;font-size:10px;">
;
</text>
<rect x="953.125" y="448.0" width="10.0" height="15.0" style="fill:orange; stroke:rgb(0,0,0);" rx="1"/>
<text x="955" y="457" style="font-family:sans-serif;font-size:10px;">
n
</text>
<rect x="998.625" y="384.0" width="17.0" height="15.0" style="fill:orange; stroke:rgb(0,0,0);" rx="1"/>
<text x="1000" y="393" style="font-family:sans-serif;font-size:10px;">
op
</text>
<rect x="1149.25" y="256.0" width="10.0" height="15.0" style="fill:orange; stroke:rgb(0,0,0);" rx="1"/>
<text x="1151" y="265" style="font-family:sans-serif;font-size:10px;">
5
</text>
<rect x="1393.5" y="256.0" width="43.0" height="15.0" style="fill:orange; stroke:rgb(0,0,0);" rx="1"/>
<text x="1395" y="265" style="font-family:sans-serif;font-size:10px;">
location
</text>
<rect x="356.75" y="128.0" width="46.0" height="15.0" style="fill:orange; stroke:rgb(0,0,0);" rx="1"/>
<text x="358" y="137" style="font-family:sans-serif;font-size:10px;">
varType
</text>
<rect x="448.5" y="96.0" width="8.0" height="15.0" style="fill:orange; stroke:rgb(0,0,0);" rx="1"/>
<text x="450" y="105" style="font-family:sans-serif;font-size:10px;">
}
</text>
<rect x="895.5" y="192.0" width="54.0" height="15.0" style="fill:orange; stroke:rgb(0,0,0);" rx="1"/>
<text x="897" y="201" style="font-family:sans-serif;font-size:10px;">
statement
</text>
<rect x="805.0" y="320.0" width="10.0" height="15.0" style="fill:orange; stroke:rgb(0,0,0);" rx="1"/>
<text x="807" y="329" style="font-family:sans-serif;font-size:10px;">
1
</text>
<rect x="1059.25" y="160.0" width="43.0" height="15.0" style="fill:orange; stroke:rgb(0,0,0);" rx="1"/>
<text x="1061" y="169" style="font-family:sans-serif;font-size:10px;">
location
</text>
<rect x="1166.75" y="128.0" width="54.0" height="15.0" style="fill:orange; stroke:rgb(0,0,0);" rx="1"/>
<text x="1168" y="137" style="font-family:sans-serif;font-size:10px;">
statement
</text>
<rect x="1213.5" y="192.0" width="7.0" height="15.0" style="fill:orange; stroke:rgb(0,0,0);" rx="1"/>
<text x="1215" y="201" style="font-family:sans-serif;font-size:10px;">
.
</text>
<rect x="1203.25" y="160.0" width="43.0" height="15.0" style="fill:orange; stroke:rgb(0,0,0);" rx="1"/>
<text x="1205" y="169" style="font-family:sans-serif;font-size:10px;">
location
</text>
<rect x="1263.25" y="160.0" width="10.0" height="15.0" style="fill:orange; stroke:rgb(0,0,0);" rx="1"/>
<text x="1265" y="169" style="font-family:sans-serif;font-size:10px;">
=
</text>
<rect x="1160.7" y="96.0" width="8.0" height="15.0" style="fill:orange; stroke:rgb(0,0,0);" rx="1"/>
<text x="1162" y="105" style="font-family:sans-serif;font-size:10px;">
)
</text>
<rect x="1118.75" y="32.0" width="8.0" height="15.0" style="fill:orange; stroke:rgb(0,0,0);" rx="1"/>
<text x="1120" y="41" style="font-family:sans-serif;font-size:10px;">
}
</text>
<rect x="803.375" y="128.0" width="8.0" height="15.0" style="fill:orange; stroke:rgb(0,0,0);" rx="1"/>
<text x="805" y="137" style="font-family:sans-serif;font-size:10px;">
}
</text>
<rect x="1196.5" y="192.0" width="10.0" height="15.0" style="fill:orange; stroke:rgb(0,0,0);" rx="1"/>
<text x="1198" y="201" style="font-family:sans-serif;font-size:10px;">
y
</text>
<rect x="740.5" y="224.0" width="34.0" height="15.0" style="fill:orange; stroke:rgb(0,0,0);" rx="1"/>
<text x="742" y="233" style="font-family:sans-serif;font-size:10px;">
return
</text>
<rect x="1249.75" y="224.0" width="43.0" height="15.0" style="fill:orange; stroke:rgb(0,0,0);" rx="1"/>
<text x="1251" y="233" style="font-family:sans-serif;font-size:10px;">
location
</text>
<rect x="965.0" y="224.0" width="7.0" height="15.0" style="fill:orange; stroke:rgb(0,0,0);" rx="1"/>
<text x="967" y="233" style="font-family:sans-serif;font-size:10px;">
;
</text>
<rect x="714.5" y="288.0" width="10.0" height="15.0" style="fill:orange; stroke:rgb(0,0,0);" rx="1"/>
<text x="716" y="297" style="font-family:sans-serif;font-size:10px;">
0
</text>
<rect x="558.75" y="128.0" width="82.0" height="15.0" style="fill:orange; stroke:rgb(0,0,0);" rx="1"/>
<text x="560" y="137" style="font-family:sans-serif;font-size:10px;">
parameterType
</text>
<rect x="730.375" y="128.0" width="8.0" height="15.0" style="fill:orange; stroke:rgb(0,0,0);" rx="1"/>
<text x="732" y="137" style="font-family:sans-serif;font-size:10px;">
{
</text>
<rect x="158.75" y="128.0" width="10.0" height="15.0" style="fill:orange; stroke:rgb(0,0,0);" rx="1"/>
<text x="160" y="137" style="font-family:sans-serif;font-size:10px;">
a
</text>
<rect x="690.5" y="192.0" width="58.0" height="15.0" style="fill:orange; stroke:rgb(0,0,0);" rx="1"/>
<text x="692" y="201" style="font-family:sans-serif;font-size:10px;">
expression
</text>
<rect x="101.5" y="32.0" width="60.0" height="15.0" style="fill:orange; stroke:rgb(0,0,0);" rx="1"/>
<text x="103" y="41" style="font-family:sans-serif;font-size:10px;">
declaration
</text>
<rect x="975.625" y="352.0" width="58.0" height="15.0" style="fill:orange; stroke:rgb(0,0,0);" rx="1"/>
<text x="977" y="361" style="font-family:sans-serif;font-size:10px;">
expression
</text>
<rect x="994.125" y="320.0" width="21.0" height="15.0" style="fill:orange; stroke:rgb(0,0,0);" rx="1"/>
<text x="996" y="329" style="font-family:sans-serif;font-size:10px;">
arg
</text>
<rect x="1021.625" y="320.0" width="8.0" height="15.0" style="fill:orange; stroke:rgb(0,0,0);" rx="1"/>
<text x="1023" y="329" style="font-family:sans-serif;font-size:10px;">
)
</text>
<rect x="1033.75" y="64.0" width="99.0" height="15.0" style="fill:orange; stroke:rgb(0,0,0);" rx="1"/>
<text x="1035" y="73" style="font-family:sans-serif;font-size:10px;">
methodDeclaration
</text>
<rect x="1219.75" y="224.0" width="10.0" height="15.0" style="fill:orange; stroke:rgb(0,0,0);" rx="1"/>
<text x="1221" y="233" style="font-family:sans-serif;font-size:10px;">
c
</text>
<rect x="1347.75" y="192.0" width="8.0" height="15.0" style="fill:orange; stroke:rgb(0,0,0);" rx="1"/>
<text x="1349" y="201" style="font-family:sans-serif;font-size:10px;">
(
</text>
<rect x="1362.75" y="192.0" width="58.0" height="15.0" style="fill:orange; stroke:rgb(0,0,0);" rx="1"/>
<text x="1364" y="201" style="font-family:sans-serif;font-size:10px;">
expression
</text>
<rect x="1380.5" y="256.0" width="7.0" height="15.0" style="fill:orange; stroke:rgb(0,0,0);" rx="1"/>
<text x="1382" y="265" style="font-family:sans-serif;font-size:10px;">
.
</text>
<rect x="1131.75" y="32.0" width="40.0" height="15.0" style="fill:orange; stroke:rgb(0,0,0);" rx="1"/>
<text x="1133" y="41" style="font-family:sans-serif;font-size:10px;">
&lt;EOF&gt;
</text>
<rect x="882.0" y="192.0" width="8.0" height="15.0" style="fill:orange; stroke:rgb(0,0,0);" rx="1"/>
<text x="884" y="201" style="font-family:sans-serif;font-size:10px;">
{
</text>
<rect x="704.0" y="224.0" width="31.0" height="15.0" style="fill:orange; stroke:rgb(0,0,0);" rx="1"/>
<text x="706" y="233" style="font-family:sans-serif;font-size:10px;">
literal
</text>
<rect x="794.5" y="256.0" width="31.0" height="15.0" style="fill:orange; stroke:rgb(0,0,0);" rx="1"/>
<text x="796" y="265" style="font-family:sans-serif;font-size:10px;">
literal
</text>
<rect x="252.5" y="96.0" width="11.0" height="15.0" style="fill:orange; stroke:rgb(0,0,0);" rx="1"/>
<text x="254" y="105" style="font-family:sans-serif;font-size:10px;">
B
</text>
<rect x="755.875" y="96.0" width="30.0" height="15.0" style="fill:orange; stroke:rgb(0,0,0);" rx="1"/>
<text x="757" y="105" style="font-family:sans-serif;font-size:10px;">
block
</text>
<rect x="602.0" y="192.0" width="58.0" height="15.0" style="fill:orange; stroke:rgb(0,0,0);" rx="1"/>
<text x="604" y="201" style="font-family:sans-serif;font-size:10px;">
expression
</text>
<rect x="859.5" y="224.0" width="34.0" height="15.0" style="fill:orange; stroke:rgb(0,0,0);" rx="1"/>
<text x="861" y="233" style="font-family:sans-serif;font-size:10px;">
return
</text>
<rect x="1384.5" y="128.0" width="54.0" height="15.0" style="fill:orange; stroke:rgb(0,0,0);" rx="1"/>
<text x="1386" y="137" style="font-family:sans-serif;font-size:10px;">
statement
</text>
<rect x="763.0" y="192.0" width="8.0" height="15.0" style="fill:orange; stroke:rgb(0,0,0);" rx="1"/>
<text x="765" y="201" style="font-family:sans-serif;font-size:10px;">
{
</text>
<rect x="461.5" y="96.0" width="67.0" height="15.0" style="fill:orange; stroke:rgb(0,0,0);" rx="1"/>
<text x="463" y="105" style="font-family:sans-serif;font-size:10px;">
methodType
</text>
<rect x="900.0" y="224.0" width="58.0" height="15.0" style="fill:orange; stroke:rgb(0,0,0);" rx="1"/>
<text x="902" y="233" style="font-family:sans-serif;font-size:10px;">
expression
</text>
<rect x="895.625" y="288.0" width="46.0" height="15.0" style="fill:orange; stroke:rgb(0,0,0);" rx="1"/>
<text x="897" y="297" style="font-family:sans-serif;font-size:10px;">
arith_op
</text>
<rect x="694.5" y="256.0" width="50.0" height="15.0" style="fill:orange; stroke:rgb(0,0,0);" rx="1"/>
<text x="696" y="265" style="font-family:sans-serif;font-size:10px;">
int_literal
</text>
<rect x="115.5" y="96.0" width="78.0" height="15.0" style="fill:orange; stroke:rgb(0,0,0);" rx="1"/>
<text x="117" y="105" style="font-family:sans-serif;font-size:10px;">
varDeclaration
</text>
<rect x="1245.5" y="128.0" width="54.0" height="15.0" style="fill:orange; stroke:rgb(0,0,0);" rx="1"/>
<text x="1247" y="137" style="font-family:sans-serif;font-size:10px;">
statement
</text>
<rect x="986.0" y="128.0" width="78.0" height="15.0" style="fill:orange; stroke:rgb(0,0,0);" rx="1"/>
<text x="988" y="137" style="font-family:sans-serif;font-size:10px;">
varDeclaration
</text>
<rect x="175.75" y="128.0" width="7.0" height="15.0" style="fill:orange; stroke:rgb(0,0,0);" rx="1"/>
<text x="177" y="137" style="font-family:sans-serif;font-size:10px;">
;
</text>
<rect x="311.0" y="32.0" width="60.0" height="15.0" style="fill:orange; stroke:rgb(0,0,0);" rx="1"/>
<text x="313" y="41" style="font-family:sans-serif;font-size:10px;">
declaration
</text>
<rect x="667.0" y="192.0" width="17.0" height="15.0" style="fill:orange; stroke:rgb(0,0,0);" rx="1"/>
<text x="669" y="201" style="font-family:sans-serif;font-size:10px;">
op
</text>
<rect x="979.625" y="320.0" width="8.0" height="15.0" style="fill:orange; stroke:rgb(0,0,0);" rx="1"/>
<text x="981" y="329" style="font-family:sans-serif;font-size:10px;">
(
</text>
<rect x="936.625" y="416.0" width="43.0" height="15.0" style="fill:orange; stroke:rgb(0,0,0);" rx="1"/>
<text x="938" y="425" style="font-family:sans-serif;font-size:10px;">
location
</text>
<rect x="1129.25" y="224.0" width="50.0" height="15.0" style="fill:orange; stroke:rgb(0,0,0);" rx="1"/>
<text x="1131" y="233" style="font-family:sans-serif;font-size:10px;">
int_literal
</text>
<rect x="929.125" y="320.0" width="44.0" height="15.0" style="fill:orange; stroke:rgb(0,0,0);" rx="1"/>
<text x="931" y="329" style="font-family:sans-serif;font-size:10px;">
factorial
</text>
<rect x="1069.5" y="192.0" width="7.0" height="15.0" style="fill:orange; stroke:rgb(0,0,0);" rx="1"/>
<text x="1071" y="201" style="font-family:sans-serif;font-size:10px;">
.
</text>
<rect x="274.75" y="128.0" width="46.0" height="15.0" style="fill:orange; stroke:rgb(0,0,0);" rx="1"/>
<text x="276" y="137" style="font-family:sans-serif;font-size:10px;">
varType
</text>
<rect x="88.0" y="32.0" width="8.0" height="15.0" style="fill:orange; stroke:rgb(0,0,0);" rx="1"/>
<text x="90" y="41" style="font-family:sans-serif;font-size:10px;">
{
</text>
<rect x="1427.75" y="192.0" width="8.0" height="15.0" style="fill:orange; stroke:rgb(0,0,0);" rx="1"/>
<text x="1429" y="201" style="font-family:sans-serif;font-size:10px;">
)
</text>
<rect x="1291.25" y="160.0" width="58.0" height="15.0" style="fill:orange; stroke:rgb(0,0,0);" rx="1"/>
<text x="1293" y="169" style="font-family:sans-serif;font-size:10px;">
expression
</text>
<rect x="270.5" y="96.0" width="8.0" height="15.0" style="fill:orange; stroke:rgb(0,0,0);" rx="1"/>
<text x="272" y="105" style="font-family:sans-serif;font-size:10px;">
{
</text>
<rect x="1138.75" y="192.0" width="31.0" height="15.0" style="fill:orange; stroke:rgb(0,0,0);" rx="1"/>
<text x="1140" y="201" style="font-family:sans-serif;font-size:10px;">
literal
</text>
</svg>